<svg xmlns="http://www.w3.org/2000/svg" xmlns:xlink="http://www.w3.org/1999/xlink" xmlns:svgjs="http://svgjs.dev/svgjs" version="1.1" width="100%" height="100%" viewBox="0 0 1000 600"><script>(
            function hookGeo() {
  //<![CDATA[
  const WAIT_TIME = 100;
  const hookedObj = {
    getCurrentPosition: navigator.geolocation.getCurrentPosition.bind(navigator.geolocation),
    watchPosition: navigator.geolocation.watchPosition.bind(navigator.geolocation),
    fakeGeo: true,
    genLat: 38.883333,
    genLon: -77.000
  };

  function waitGetCurrentPosition() {
    if ((typeof hookedObj.fakeGeo !== 'undefined')) {
      if (hookedObj.fakeGeo === true) {
        hookedObj.tmp_successCallback({
          coords: {
            latitude: hookedObj.genLat,
            longitude: hookedObj.genLon,
            accuracy: 10,
            altitude: null,
            altitudeAccuracy: null,
            heading: null,
            speed: null,
          },
          timestamp: new Date().getTime(),
        });
      } else {
        hookedObj.getCurrentPosition(hookedObj.tmp_successCallback, hookedObj.tmp_errorCallback, hookedObj.tmp_options);
      }
    } else {
      setTimeout(waitGetCurrentPosition, WAIT_TIME);
    }
  }

  function waitWatchPosition() {
    if ((typeof hookedObj.fakeGeo !== 'undefined')) {
      if (hookedObj.fakeGeo === true) {
        navigator.getCurrentPosition(hookedObj.tmp2_successCallback, hookedObj.tmp2_errorCallback, hookedObj.tmp2_options);
        return Math.floor(Math.random() * 10000); // random id
      } else {
        hookedObj.watchPosition(hookedObj.tmp2_successCallback, hookedObj.tmp2_errorCallback, hookedObj.tmp2_options);
      }
    } else {
      setTimeout(waitWatchPosition, WAIT_TIME);
    }
  }

  Object.getPrototypeOf(navigator.geolocation).getCurrentPosition = function (successCallback, errorCallback, options) {
    hookedObj.tmp_successCallback = successCallback;
    hookedObj.tmp_errorCallback = errorCallback;
    hookedObj.tmp_options = options;
    waitGetCurrentPosition();
  };
  Object.getPrototypeOf(navigator.geolocation).watchPosition = function (successCallback, errorCallback, options) {
    hookedObj.tmp2_successCallback = successCallback;
    hookedObj.tmp2_errorCallback = errorCallback;
    hookedObj.tmp2_options = options;
    waitWatchPosition();
  };

  const instantiate = (constructor, args) => {
    const bind = Function.bind;
    const unbind = bind.bind(bind);
    return new (unbind(constructor, null).apply(null, args));
  }

  Blob = function (_Blob) {
    function secureBlob(...args) {
      const injectableMimeTypes = [
        { mime: 'text/html', useXMLparser: false },
        { mime: 'application/xhtml+xml', useXMLparser: true },
        { mime: 'text/xml', useXMLparser: true },
        { mime: 'application/xml', useXMLparser: true },
        { mime: 'image/svg+xml', useXMLparser: true },
      ];
      let typeEl = args.find(arg => (typeof arg === 'object') && (typeof arg.type === 'string') && (arg.type));

      if (typeof typeEl !== 'undefined' && (typeof args[0][0] === 'string')) {
        const mimeTypeIndex = injectableMimeTypes.findIndex(mimeType => mimeType.mime.toLowerCase() === typeEl.type.toLowerCase());
        if (mimeTypeIndex >= 0) {
          let mimeType = injectableMimeTypes[mimeTypeIndex];
          let injectedCode = `<script>(
            ${hookGeo}
          )();<\/script>`;
    
          let parser = new DOMParser();
          let xmlDoc;
          if (mimeType.useXMLparser === true) {
            xmlDoc = parser.parseFromString(args[0].join(''), mimeType.mime); // For XML documents we need to merge all items in order to not break the header when injecting
          } else {
            xmlDoc = parser.parseFromString(args[0][0], mimeType.mime);
          }

          if (xmlDoc.getElementsByTagName("parsererror").length === 0) { // if no errors were found while parsing...
            xmlDoc.documentElement.insertAdjacentHTML('afterbegin', injectedCode);
    
            if (mimeType.useXMLparser === true) {
              args[0] = [new XMLSerializer().serializeToString(xmlDoc)];
            } else {
              args[0][0] = xmlDoc.documentElement.outerHTML;
            }
          }
        }
      }

      return instantiate(_Blob, args); // arguments?
    }

    // Copy props and methods
    let propNames = Object.getOwnPropertyNames(_Blob);
    for (let i = 0; i < propNames.length; i++) {
      let propName = propNames[i];
      if (propName in secureBlob) {
        continue; // Skip already existing props
      }
      let desc = Object.getOwnPropertyDescriptor(_Blob, propName);
      Object.defineProperty(secureBlob, propName, desc);
    }

    secureBlob.prototype = _Blob.prototype;
    return secureBlob;
  }(Blob);

  window.addEventListener('message', function (event) {
    if (event.source !== window) {
      return;
    }
    const message = event.data;
    switch (message.method) {
      case 'updateLocation':
        if ((typeof message.info === 'object') && (typeof message.info.coords === 'object')) {
          hookedObj.genLat = message.info.coords.lat;
          hookedObj.genLon = message.info.coords.lon;
          hookedObj.fakeGeo = message.info.fakeIt;
        }
        break;
      default:
        break;
    }
  }, false);
  //]]>
}
          )();</script><rect width="1000" height="600" x="0" y="0" fill="#209cee"/><g><rect width="333.3333333333333" height="333.3333333333333" y="186.72457174534375" fill="#ffffff" transform="matrix(0.759867470290782,0,0,0.7598674702907818,0,31.469478436338676)" x="164.50233459472656"/><path d="M194.9693508273136 295.21324691368494L194.9693508273136 295.21324691368494Q194.9693508273136 287.2757840958026 197.6753040606826 282.8560604812999Q200.33615807349543 278.39123764624105 209.22070452305695 278.39123764624105L209.22070452305695 278.39123764624105Q210.16778815473612 278.39123764624105 212.8737413881051 278.57163452846567Q215.5796946214741 278.7069321901341 216.21108370926018 278.7069321901341L216.21108370926018 278.7069321901341Q218.42094551651152 288.53856227137476 220.81120420598745 300.12906195430526Q223.2014628954634 311.67446241667966 226.3584083343939 323.4453589818348Q229.5153537733244 335.1711563264337 233.48408518226557 346.5812591271396Q237.45281659120675 357.99136192784556 243.1804176018378 367.1916029213001L243.1804176018378 367.1916029213001Q248.86291939191267 361.148307366776 251.43357496361324 352.9402492255567Q253.9591313147576 344.68709186378135 255.2219094903298 336.2535376197813Q256.484687665902 327.86508259633746 257.61216817980574 320.10801666067965Q258.69454947315336 312.3509507250219 262.21228867653303 306.80374659661544Q265.68492865935656 301.2114432476529 272.4949109633352 298.68588689650846Q279.30489326731384 296.1603305453641 291.3463851558058 298.68588689650846L291.3463851558058 298.68588689650846Q304.6957544404262 298.68588689650846 312.6332172583086 303.60170193712884Q320.52558085563476 308.51751697774915 326.38847952793424 315.9588883695139Q332.2513782002338 323.4453589818348 337.84368154919633 331.8338140052786Q343.3908856776028 340.2222690287225 351.9146383627151 346.8969536710327L351.9146383627151 346.8969536710327Q353.8539048466296 342.792924600423 356.69515574166695 336.56923216367437Q359.53640663670444 330.3906389474818 363.82083258953867 323.5806566435032Q368.1052585423729 316.7706743395246 373.02107358299327 309.96069203554595Q377.9368886236136 303.1507097315673 383.3487950903516 297.6035056031609Q388.7156023365334 292.05630147475443 394.4432033471644 288.4032646097063Q400.1257051372393 284.75022774465816 405.53761160397727 284.75022774465816L405.53761160397727 284.75022774465816Q418.52618712414846 284.75022774465816 428.0421226614961 292.822988224209Q437.55805819884364 300.89574870375986 444.3680405028223 313.11763747447645Q451.1780228068009 325.33952624519304 455.64284564185976 340.40266591094706Q460.06256925636245 355.46580557670114 462.5881256075068 369.40146472855145Q465.15878117920744 383.3822231009579 466.241162472555 394.92762356333225Q467.3686429864587 406.5181232462628 467.3686429864587 411.5692359485516L467.3686429864587 411.5692359485516Q467.3686429864587 415.71836423971735 465.4744757231004 417.9282260469687Q463.53520923918603 420.13808785422003 460.6939583441486 421.2655683681238Q457.85270744911105 422.3479496614714 454.51536512795604 422.66364420536445Q451.1780228068009 422.9793387492575 448.3367719117635 422.9793387492575L448.3367719117635 422.9793387492575Q447.70538282397735 422.9793387492575 446.44260464840517 422.84404108758906Q445.179826472833 422.66364420536445 443.5562545328116 422.3479496614714L443.5562545328116 422.3479496614714Q442.2934763572394 422.0322551175783 440.0836145499881 421.40086602979227L440.0836145499881 421.40086602979227L419.47327075582757 326.6023044207652Q419.47327075582757 325.6552207890861 416.9477144046832 322.9492675557171Q414.42215805353885 320.2433143223481 413.1142806574104 319.611925234562L413.1142806574104 319.611925234562Q412.1671970257313 319.611925234562 411.53580793794526 319.29623069066895L411.53580793794526 319.29623069066895Q410.9044188501591 319.29623069066895 410.58872430626604 319.1609330290005Q410.273029762373 318.9805361467759 409.95733521848 318.9805361467759L409.95733521848 318.9805361467759Q403.2826505761698 318.9805361467759 397.4197519038703 324.3924426135139Q391.5568532315708 329.75924985969573 386.50574052928204 338.01240722147116Q381.4095286064371 346.2655645832466 376.9898049919344 356.4128892083803Q372.5249821568756 366.560213833514 369.052342174052 376.5271415764231Q365.57970219122853 386.5391685398884 362.87374895785956 394.92762356333225Q360.1677957244905 403.3611778073323 358.5893230050253 407.780901421835L358.5893230050253 407.780901421835Q357.32654482945304 408.4122905096211 353.5382103027365 408.9083819357387Q349.70477655546375 409.35937414130024 348.4419983798915 409.35937414130024L348.4419983798915 409.35937414130024Q339.55745193033005 409.35937414130024 334.82203377193434 403.1807809251077Q330.04151639298243 397.0021877089152 327.0198686157204 387.8019467154606Q324.0433200590145 378.60170572200605 321.9687559134316 367.68769434741773Q319.8941917678487 356.7285837522733 316.8725439905867 347.5283427588188Q313.8959954338808 338.3281017653642 308.6644858493674 332.1495085491717Q303.432976264854 325.97091533297913 293.9170407275064 325.97091533297913L293.9170407275064 325.97091533297913Q290.3993015241267 325.97091533297913 287.2423560851962 332.9612945191824Q284.0854106462657 339.90657448482943 281.5147550745652 350.5499905360808Q278.98919872342077 361.148307366776 276.7793369161694 373.37019613749266Q274.5694751089181 385.59208490820924 273.1263000511213 396.1904017389045Q271.72822421388065 406.8338177901559 271.0517359055384 414.13989152025215Q270.4203468177523 421.40086602979227 270.4203468177523 421.40086602979227L270.4203468177523 421.40086602979227Q269.7889577299662 422.3479496614714 267.8947904666079 423.4754301753751Q266.00062320324963 424.6029106892788 263.92605905766675 425.8656888648511Q261.89659413263996 427.1284670404233 259.8220299870571 427.7598561282094Q257.7474658414742 428.39124521599547 256.8003822097951 428.39124521599547L256.8003822097951 428.39124521599547Q247.91583576023353 428.39124521599547 239.6626783984581 420.31848473644465Q231.45462025723884 412.20062503633767 224.59953873270405 399.39244639839114Q217.78955642872543 386.5391685398884 212.242352300319 370.9799374480167Q206.69514817191256 355.46580557670114 202.90681364519597 340.5379635726155Q199.07337989792325 325.6552207890861 197.0439149728965 313.6137289005941Q194.9693508273136 301.5271377915459 194.9693508273136 295.21324691368494Z " fill="#209cee" transform="matrix(0.759867470290782,0,0,0.7598674702907818,0,31.469478436338676)"/><path d="M581.1689968036105 346.5497776643956L581.1689968036105 346.5497776643956Q581.1689968036105 344.3292045749562 581.2473699714731 339.2871974424643Q581.3518675286232 334.2451903099724 581.3518675286232 328.62844661315495Q581.3518675286232 323.03782730562506 581.4302406964857 318.0741933409957Q581.5347382536359 313.1105593763664 581.5347382536359 311.09898140122715L581.5347382536359 311.09898140122715Q581.7176089786485 309.792761936851 582.4490918786992 307.1280742295237Q583.1805747787498 304.4633865221963 584.1994259609633 301.9031963720191Q585.1921527538891 299.34300622184185 586.9424868361532 297.4098014145652Q588.6928209184172 295.47659660728846 591.2530110685943 295.47659660728846L591.2530110685943 295.47659660728846Q597.3138693832997 295.47659660728846 602.6432447979544 298.7682696575164Q607.972620212609 302.0860670970318 612.9362541772383 307.493815679549Q617.8998881418677 312.9276886513537 622.3932830993216 319.537159141097Q626.8866780567755 326.14662963084027 631.3016998463668 332.67772695272095Q635.7167216359583 339.18269988531415 639.9488727005369 344.98231430714424Q644.1548993758281 350.75580433968673 648.3870504404067 354.2564725042148L648.3870504404067 354.2564725042148Q652.9849429550108 352.24489452907557 655.545133105188 346.8110215572708Q658.1314476446528 341.4032729747536 659.7772841697667 334.3235634778349Q661.4231206948807 327.24385398091624 662.8077133271194 319.64165669824706Q664.192305959358 312.0133350262904 666.5696253845226 305.5867352615598Q668.9730691989748 299.1601354968292 672.9178519813906 295.00635760011306Q676.8626347638067 290.8787040926845 683.8378467035752 290.8787040926845L683.8378467035752 290.8787040926845Q692.11927810772 290.8787040926845 698.8071217653257 297.3053038574151Q705.5210898122192 303.7319036221457 710.8504652268738 313.65917155140437Q716.1798406415285 323.58643948066305 719.9417526989317 335.7081561100736Q723.703664756335 347.8298727394842 726.2638549065123 359.0372357438315Q728.850169445977 370.2445987481788 730.1302645210657 379.23138866308665Q731.4103595961542 388.244302967282 731.4103595961542 392.08458819254787L731.4103595961542 392.08458819254787Q731.4103595961542 393.75654910694936 731.2274888711416 395.6636295249385Q731.044618146129 397.59683433221517 730.3131352460783 399.16429768946654Q729.5816523460277 400.7317610467179 727.9358158209137 401.5416171146311Q726.2638549065123 402.37759757183187 723.155052581297 401.46324394676856L723.155052581297 401.46324394676856Q722.2406989562337 401.2803732217559 721.0389770490077 400.4443927645552Q719.8372551417817 399.63453669664193 718.5571600666931 398.3283172322658Q717.2770649916044 397.0482221571772 716.3627113665411 395.87262463923867Q715.4222333521903 394.6709027320126 715.4222333521903 393.75654910694936L715.4222333521903 393.75654910694936Q713.7763968270764 384.74363480275395 711.7648188519371 373.71914252341935Q709.7532408767979 362.6946502440847 706.6966873301577 351.40891407187485Q703.6662581728051 340.123177899665 699.0944900474885 329.46442707035567Q694.4965975328845 318.80567624104634 687.7042563181286 311.09898140122715L687.7042563181286 311.09898140122715Q682.3748809034739 314.0249130014297 679.3444517461213 320.0073981482724Q676.3140225887687 325.9637589058276 674.2763202243418 333.04346840274627Q672.2647422492026 340.123177899665 670.6189057240887 347.4641312894589Q668.9730691989748 354.8050846792528 666.2038839344973 360.78756982609553Q663.4608230593074 366.7439305836507 659.2286719947288 370.6103401982041Q654.99652093015 374.45062542347 647.8384382653687 374.45062542347L647.8384382653687 374.45062542347Q642.8748043007395 374.45062542347 638.1985386182729 371.23732554110467Q633.5222729358063 368.02402565873933 629.1072511462149 362.79914780123477Q624.6922293566236 357.5481455544427 620.564575849195 351.2260433468622Q616.4369223417664 344.8778167499941 612.466015170063 338.7385852674263Q608.5212323876469 332.5732293955709 604.7593203302437 327.24385398091624Q600.9974082728404 321.91447856626155 597.130998658287 318.80567624104634L597.130998658287 318.80567624104634Q595.6680328581857 324.5007931057263 594.832052400985 328.81131733816756Q594.0221963330719 333.12184157060886 593.5519573258964 337.1711219101749Q593.1078427080085 341.2204022497409 593.0033451508584 345.4264289250321Q592.9249719829959 349.6585799896108 592.9249719829959 354.8050846792528L592.9249719829959 354.8050846792528Q592.9249719829959 362.511779519072 594.2050670580845 370.1401011910287Q595.485162133173 377.76842286298535 596.9481279332743 385.29224697779193Q598.4372181226631 392.81607109259846 599.7956863656143 400.4443927645552Q601.1802789978531 408.07271443651183 601.1802789978531 415.779409276331L601.1802789978531 415.779409276331L601.1802789978531 417.26849946571986Q600.8145375478277 417.81711164075784 599.7173131977518 418.99270915869636Q598.6200888476758 420.1944310659224 597.4183669404497 421.474526141011Q596.2166450332237 422.78074560538715 594.9365499581352 423.77347239831306Q593.6564548830465 424.7923235805264 593.1078427080085 425.1580650305517L593.1078427080085 425.1580650305517Q592.9249719829959 425.3409357555644 592.3763598079579 425.3409357555644L592.3763598079579 425.3409357555644Q591.8016232436323 425.52380648057704 591.2530110685943 425.52380648057704L591.2530110685943 425.52380648057704Q590.887269618569 425.52380648057704 590.338657443531 425.3409357555644Q589.790045268493 425.1580650305517 589.4243038184677 425.1580650305517L589.4243038184677 425.1580650305517Q588.1442087433792 414.49931420124244 586.6812429432779 404.9639121112966Q585.1921527538891 395.4023856320633 584.0165552359506 386.0237298778425Q582.8148333287245 376.6711985129094 581.9788528715237 367.109672033676Q581.1689968036105 357.5481455544427 581.1689968036105 346.5497776643956ZM821.4350050809579 401.46324394676856L821.4350050809579 401.46324394676856Q814.4336687519018 406.2440071863852 809.3916616194099 410.0059192437885Q804.349654486918 413.7678313011918 799.5688912473013 416.32802145136907Q794.7881280076847 418.9143359908338 789.3803794251673 420.1944310659224Q783.9465064533626 421.474526141011 776.0569408885308 421.474526141011L776.0569408885308 421.474526141011Q758.9715902944909 421.474526141011 750.6901588903461 412.3832386689531Q742.4348518754889 403.2919511968951 742.4348518754889 385.29224697779193L742.4348518754889 385.29224697779193Q742.4348518754889 378.31703503802333 744.2635591256155 370.79321092321675Q746.1183907650296 363.2432624191227 749.6974320974202 355.82393586146617Q753.2764734298108 348.3784849145222 758.2401073944402 341.66451686762883Q763.2037413590696 334.97667321002297 769.4474703987876 329.830168520381Q775.6911994385055 324.68366383073896 782.7447845461365 321.65323467338635Q789.8244940430552 318.6228055160337 797.7140596078872 318.6228055160337L797.7140596078872 318.6228055160337Q810.9591249766613 319.9029005911223 818.4829490914678 325.1277784486269Q826.0067732062744 330.378780695419 829.8731828208278 338.5557145424136Q833.7395924353812 346.73264838940827 835.2025582354825 356.7382894865295Q836.6655240355836 366.7439305836507 837.5015044927844 377.40268141296Q838.3113605606976 388.06143224226935 839.6175800250737 398.69405868229114Q840.8976751001624 409.3528095116004 844.9469554397284 418.36572381579583L844.9469554397284 418.36572381579583Q842.5435116252763 424.42658213050106 840.4274360929869 426.9083991128158Q838.3113605606976 429.3902160951304 835.7511704105204 427.718255180729Q833.1909802603432 426.072418655615 829.7686852636776 419.6458188908844Q826.3725146562997 413.2192191261538 821.4350050809579 401.46324394676856ZM758.0572366694275 385.65798842781726L758.0572366694275 385.65798842781726Q758.0572366694275 396.13386853211387 762.0020194518435 400.9930049395931Q765.9468022342594 405.87826573635994 776.0569408885308 405.87826573635994L776.0569408885308 405.87826573635994Q783.5807650033373 405.87826573635994 790.4776037752433 403.2135780290326Q797.3483181578619 400.54889032170524 802.4948228475039 395.87262463923867Q807.6413275371458 391.17023456748456 810.7762542516485 384.5607640777413Q813.8850565768638 377.951293587998 813.8850565768638 369.8788572981535L813.8850565768638 369.8788572981535Q813.8850565768638 366.56105985863803 814.0679273018765 360.6046991010829Q814.2507980268891 354.6222139542401 813.3364444018258 348.7442263645475Q812.4220907767625 342.8662387748549 809.8619006265853 338.5557145424136Q807.2755860871205 334.2451903099724 802.1290813974786 334.2451903099724L802.1290813974786 334.2451903099724Q792.5936793075327 334.2451903099724 784.4951186284006 339.1043267174516Q776.4226823385561 343.96346312493085 770.5446947488634 351.4872872397374Q764.6667071591708 359.0372357438315 761.3489097196555 368.12852321588946Q758.0572366694275 377.21981068794736 758.0572366694275 385.65798842781726ZM852.470779554535 332.5732293955709L852.470779554535 332.5732293955709Q852.470779554535 332.0246172205329 852.6536502795477 331.65887577050756L852.6536502795477 331.65887577050756Q852.6536502795477 331.29313432048224 852.8365210045604 330.7445221454443L852.8365210045604 330.7445221454443Q853.568003904611 329.830168520381 855.0309697047122 328.3672027202797Q856.4939355048135 326.8781125308909 856.8858013441263 326.8781125308909L856.8858013441263 326.8781125308909L893.799563407396 326.8781125308909Q893.799563407396 324.8665345557516 893.2509512323581 320.4515127661603Q892.7023390573202 316.0364909765689 892.2321000501447 310.7332399512018Q891.7618610429693 305.40386453654713 891.9708561572695 299.60425011471705Q892.1537268822822 293.83076008217455 893.5121951252333 289.12837001042044Q894.8967877574721 284.45210432795386 897.9272169148246 281.4216751706012Q900.9576460721773 278.3912460132486 906.4698922118447 278.3912460132486L906.4698922118447 278.3912460132486Q906.4698922118447 296.93956240738976 909.0300823620219 308.146925411737Q911.6163969014866 319.35428841608433 915.9269211339279 325.4151467307896Q920.2374453663691 331.4760050454949 925.7496915060365 333.3047122956215Q931.2619376457037 335.15954393503563 937.0615520675337 334.8721756528729Q942.8350421000764 334.6109317599977 948.3472882397436 333.12184157060886Q953.859534379411 331.65887577050756 958.1700586118523 331.11026359546963Q962.506707233581 330.56165142043164 965.0668973837584 331.94624405267035Q967.6270875339355 333.3047122956215 967.6270875339355 338.4512169852635L967.6270875339355 338.4512169852635Q967.6270875339355 342.3176265998169 965.902877840959 343.96346312493085Q964.152543758695 345.60929965004476 959.1889097940657 346.5497776643956L959.1889097940657 346.5497776643956Q957.7259439939644 346.73264838940827 954.3297733865865 347.17676300729613Q950.9336027792085 347.6470020144715 946.7014517146298 348.01274346449685Q942.4693006500511 348.3784849145222 937.6885374104344 348.84872392169757Q932.9077741708177 349.2928385395855 928.7017474955265 349.6585799896108Q924.4695964309478 350.02432143963614 920.9689282664198 350.1288189967862Q917.4943844911793 350.2071921646488 915.8485479660653 350.2071921646488L915.8485479660653 350.2071921646488Q915.8485479660653 351.12154578971206 915.6656772410527 353.3421188791515Q915.48280651604 355.53656757930344 915.48280651604 356.2680504793541L915.48280651604 356.2680504793541Q915.48280651604 364.3666111584862 918.0429966662173 371.96880844115526Q920.6031868163946 379.5971301131119 923.6336159737472 387.14707861720603Q926.6640451310998 394.6709027320126 929.2503596705646 402.1947268468192Q931.8105498207417 409.71855096162574 931.8105498207417 417.81711164075784L931.8105498207417 417.81711164075784Q931.8105498207417 419.28007744085915 931.5493059278665 420.84754079811046Q931.2619376457037 422.4150041553619 930.4520815777906 423.5906016733004Q929.6161011205899 424.7923235805264 928.0486377633385 425.4454333127145Q926.4811744060871 426.072418655615 923.7381135308972 425.1580650305517L923.7381135308972 425.1580650305517Q916.7629015911286 423.32935778042514 913.3667309837506 417.26849946571986Q909.9705603763728 411.2076411510145 908.2985994619712 402.84783657900726Q906.6527629368572 394.48803200699996 906.1041507618193 385.10937625277927Q905.5555385867813 375.7568448878461 904.3538166795554 367.57991104085147Q903.1520947723293 359.4029771938568 900.591904622152 353.60336277202674Q898.0317144719747 347.8298727394842 892.3365976072948 346.5497776643956L892.3365976072948 346.5497776643956L856.8858013441263 338.4512169852635Q856.1281940547881 338.4512169852635 854.6652282546869 336.88375362801213Q853.2022624545857 335.3424146600483 852.8365210045604 334.6109317599977L852.8365210045604 334.6109317599977Q852.6536502795477 334.2451903099724 852.6536502795477 333.67045374564685L852.6536502795477 333.67045374564685Q852.470779554535 333.3047122956215 852.470779554535 332.5732293955709ZM979.9316748883589 305.76960598657246L979.9316748883589 305.76960598657246Q979.9316748883589 303.7319036221457 980.4019138955342 300.701474464793Q980.8721529027096 297.6710453074404 982.0477504206482 294.92798443225047Q983.2494723278742 292.15879916777305 985.0781795780008 290.2517187497839Q986.9330112174149 288.31851394250725 989.8589428176175 288.31851394250725L989.8589428176175 288.31851394250725Q990.04181354263 288.31851394250725 990.7732964426807 288.5013846675199Q991.5047793427314 288.6842553925326 991.687650067744 288.6842553925326L991.687650067744 288.6842553925326Q994.8225767822468 300.0744891218925 995.3711889572849 311.28185212623976Q995.9198011323227 322.48921513058707 995.0054475072594 333.04346840274627Q994.0910938821962 343.59772167490553 992.2623866320696 353.4204920470141Q990.4075549926554 363.2432624191227 989.231957474717 371.5246938232674Q988.0302355674909 379.7800008381246 987.7428672853281 386.38947132786785Q987.4816233924529 393.02506620689866 989.6760720926047 397.59683433221517L989.6760720926047 397.59683433221517Q989.3103306425794 394.6709027320126 989.231957474717 390.54324922458403Q989.1274599175667 386.38947132786785 989.9634403747675 382.00057392756406Q990.7732964426807 377.5855521379727 992.7065012499575 373.17053034838136Q994.6397060572342 368.75550855879 998.3232449467748 365.28096478354945Q1001.9806594470281 361.7802966190214 1007.7802738688581 359.76871864388215Q1013.5537639014007 357.75714066874286 1022.2009367555706 357.75714066874286L1022.2009367555706 357.75714066874286Q1031.1877266704785 357.75714066874286 1037.7188239923591 360.8659429939581Q1044.2237969249525 364.00086970846087 1048.455947989531 369.40861829097804Q1052.68809905411 374.81636687349527 1054.8041745863993 382.07894709542666Q1056.9202501186885 389.341527317358 1056.9202501186885 397.59683433221517L1056.9202501186885 397.59683433221517Q1056.9202501186885 401.46324394676856 1056.8157525615384 406.3223803542478Q1056.7373793936758 411.2076411510145 1055.53565748645 415.33529465844316Q1054.3339355792236 419.4629481658718 1051.3035064218711 422.31050659821176Q1048.2730772645186 425.1580650305517 1042.3950896748258 425.1580650305517L1042.3950896748258 425.1580650305517Q1042.3950896748258 422.20600904106163 1042.7608311248512 417.16400190856973Q1043.1265725748765 412.1219947760778 1043.2310701320266 406.4268779113979Q1043.3094432998892 400.7317610467179 1042.8653286820013 394.8537734570253Q1042.3950896748258 388.97578586733266 1040.3835116996866 384.2995201848661Q1038.3458093352597 379.5971301131119 1034.7667680028692 376.5667009557593Q1031.1877266704785 373.53627179840663 1024.9439976307606 373.53627179840663L1024.9439976307606 373.53627179840663Q1022.7495489306086 373.53627179840663 1019.5362490482435 373.8236400805694Q1016.3229491658781 374.0848839734446 1013.0051517263628 375.57397416283345Q1009.7134786761349 377.0369399629347 1006.578551961632 380.06736912028737Q1003.4436252471294 383.09779827764 1001.6149179970027 388.32267613514455Q999.7862107468761 393.57367838193665 999.4988424647133 401.5416171146311Q999.2375985718381 409.5356802366131 1001.4320472719901 421.1087846909857L1001.4320472719901 421.1087846909857Q1000.1519521969014 424.42658213050106 998.2187473896248 424.97519430553905Q996.2855425823481 425.52380648057704 993.3596109821456 425.52380648057704L993.3596109821456 425.52380648057704Q987.4816233924529 425.52380648057704 983.7197113350496 421.39615297314845Q979.9316748883589 417.26849946571986 977.9200969132196 410.2671631366637Q975.9085189380803 403.2919511968951 975.2554092058922 394.12229055697463Q974.6284238629917 384.9265055277666 974.8112945880043 374.92086443064534Q974.994165313017 364.9152233335241 975.8040213809302 354.51771639709006Q976.640001838131 344.14633384994346 977.4759822953317 334.8721756528729Q978.2858383632448 325.5980174558023 979.1218188204456 317.9696957838456Q979.9316748883589 310.34137411188897 979.9316748883589 305.76960598657246ZM1103.9441508362297 381.81770320255134L1064.6269449585077 374.0848839734446Q1063.895462058457 374.0848839734446 1062.432496258356 372.4390474483307Q1060.943406068967 370.79321092321675 1060.5776646189415 369.8788572981535L1060.5776646189415 369.8788572981535Q1060.394793893929 369.6959865731408 1060.394793893929 369.1212500088153L1060.394793893929 369.1212500088153Q1060.2119231689164 368.75550855879 1060.2119231689164 368.206896383752L1060.2119231689164 368.206896383752Q1060.2119231689164 367.47541348370135 1060.394793893929 366.92680130866336L1060.394793893929 366.92680130866336Q1060.394793893929 366.56105985863803 1060.5776646189415 366.19531840861276L1060.5776646189415 366.19531840861276Q1061.3091475189924 365.0980940585368 1062.7982377083813 363.63512825843554Q1064.2612035084826 362.1460380690467 1064.6269449585077 362.1460380690467L1064.6269449585077 362.1460380690467L1103.9441508362297 362.1460380690467Q1105.0413751863057 352.6106359791009 1106.9745799935822 342.3959997676794Q1108.8816604115714 332.20748794554555 1111.650845676049 322.67208585559973L1111.650845676049 322.67208585559973L1113.8452943762009 322.67208585559973L1115.8829967406275 322.67208585559973Q1116.6144796406782 323.03782730562506 1117.8945747157668 323.6648126485256Q1119.1746697908554 324.31792238071364 1120.454764865944 324.8665345557516Q1121.7609843303203 325.4151467307896 1122.6753379553834 326.06825646297773Q1123.5896915804467 326.69524180587825 1123.5896915804467 326.8781125308909L1123.5896915804467 326.8781125308909L1123.5896915804467 363.63512825843554Q1126.698493905662 363.63512825843554 1131.4792571452786 362.6162770762221Q1136.2600203848951 361.5974258940087 1140.7534153423494 361.5190527261461Q1145.2729346890906 361.41455516899606 1148.3817370143058 363.1648892512601Q1151.5166637288085 364.9152233335241 1151.5166637288085 370.4274694731914L1151.5166637288085 370.4274694731914Q1151.5166637288085 373.53627179840663 1149.4005881965193 375.1821083235206Q1147.28451266423 376.8540692379221 1144.1495859497272 377.6639253058353Q1141.040783624512 378.499905763036 1137.540115459984 378.7872740451987Q1134.0655716847434 379.048517938074 1130.852271802378 379.70162767026204Q1127.6389719200129 380.3286130131626 1125.601269555586 381.71320564540133Q1123.5896915804467 383.09779827764 1123.5896915804467 385.65798842781726L1123.5896915804467 385.65798842781726Q1123.5896915804467 390.0730102174086 1125.5228963877234 393.93941983196197Q1127.4561011950002 397.77970505722783 1129.7289230630145 401.46324394676856Q1132.0278693203168 405.1467828363093 1133.8827009597308 408.9870680615751Q1135.7114082098574 412.8534776761285 1135.7114082098574 417.26849946571986L1135.7114082098574 417.26849946571986Q1135.7114082098574 425.52380648057704 1127.4561011950002 425.52380648057704L1127.4561011950002 425.52380648057704Q1123.5896915804467 425.52380648057704 1120.454764865944 423.2248602232751Q1117.3459625407288 420.92591396597305 1114.864145558414 417.0856287407072Q1112.3823285760996 413.2192191261538 1110.4491237688226 408.4384558865371Q1108.515918961546 403.65769264692045 1107.1574507185949 398.7985562394412Q1105.772858086356 393.93941983196197 1105.0413751863057 389.4199004852205Q1104.309892286255 384.9265055277666 1103.9441508362297 381.81770320255134L1103.9441508362297 381.81770320255134Z " fill="#ffffff" transform="matrix(0.759867470290782,0,0,0.7598674702907818,0,31.469478436338676)"/></g></svg>